<?xml version="1.0" encoding="utf-8"?>
<!-- Generator: Adobe Illustrator 19.0.0, SVG Export Plug-In . SVG Version: 6.00 Build 0)  -->
<svg version="1.1" id="layer" xmlns="http://www.w3.org/2000/svg" xmlns:xlink="http://www.w3.org/1999/xlink" x="0px" y="0px"
	 viewBox="-153 -46 652 652" style="enable-background:new -153 -46 652 652;" xml:space="preserve">
<style type="text/css">
	.st0{fill:#E52715;}
	.st1{fill:#B1B1B1;}
	.st2{fill:#1C1C1A;}
	.st3{fill:#FFFFFF;}
	.st4{fill-rule:evenodd;clip-rule:evenodd;fill:#E52715;}
	.st5{fill:none;stroke:#1C1C1A;stroke-width:1.3947;stroke-linecap:round;stroke-linejoin:round;stroke-miterlimit:10;}
</style>
<path class="st0" d="M47.7,327.2c10.2-89.5,91-153.7,180.4-143.5c89.5,10.2,153.7,91,143.6,180.5c-10.2,89.5-91,153.7-180.4,143.5
	C101.8,497.4,37.5,416.7,47.7,327.2"/>
<path class="st1" d="M209.5,177c6.4,0,12.9,0.4,19.3,1.1c92.4,10.5,159,94.3,148.5,186.7C367.6,450,295.7,514.3,210,514.3
	c-6.4,0-12.9-0.4-19.3-1.1c-92.4-10.5-159-94.3-148.5-186.7C51.9,241.3,123.8,177,209.5,177 M210,503.1c80,0,147.1-60,156.2-139.6
	c9.8-86.3-52.4-164.4-138.6-174.3c-6-0.7-12.1-1-18-1c-80,0-147.1,60-156.2,139.6c-9.8,86.2,52.4,164.4,138.6,174.3
	C197.9,502.8,204,503.1,210,503.1"/>
<polyline class="st2" points="394.9,273.1 379.6,290.4 372.6,280.9 380.1,270.8 374.5,264.4 387.8,264.2 "/>
<polyline class="st2" points="396.5,294.6 377.8,316.2 371.3,308 388.7,286.2 "/>
<polyline class="st2" points="400.8,317.1 380.9,339.7 375.5,331.5 393.4,306.4 "/>
<polyline class="st2" points="399.1,342.9 381.4,360.5 376.9,354.8 393.3,332.4 "/>
<polyline class="st2" points="396.4,370.9 377.1,383.7 374.7,374.2 392,358.9 "/>
<polyline class="st2" points="391.1,392.3 370.7,404.4 370.4,396.3 389.2,384 "/>
<polyline class="st2" points="382.6,416.7 362.9,422 363.2,414.5 383,402.9 "/>
<polygon class="st2" points="368.1,426.6 362.5,441 342.5,443.9 340.6,440.3 350.6,438.5 350.9,430.5 "/>
<polygon class="st2" points="195.1,327.7 187.9,334.4 199.7,337.5 207.5,334.9 212.8,334.4 214.2,332.2 "/>
<polygon class="st2" points="16.3,334.5 22.2,338.1 24,348.1 20.1,351.7 13.3,350.9 9.3,340.6 "/>
<polygon class="st2" points="8.3,291.7 21.3,309.5 21.3,309.6 23.3,333.5 15.7,330.8 7.1,337.7 0.5,311.9 0.6,311.8 "/>
<polygon class="st2" points="183.1,334 182.7,333.9 -5,285.8 5.8,277.1 23.3,281.4 34.1,272.8 42.9,277.1 36.3,285.4 190.7,325.6 
	"/>
<polygon class="st2" points="247.7,423.9 236.3,422.6 215.6,436.4 156.4,449.3 148.6,446.1 148.4,443.2 108.1,356 79,337 
	75.4,333.2 75.4,328 61.9,304.5 63,300 66.5,299.8 81.5,320 95.8,326.2 99.5,319.7 92.1,308.5 99.6,308.7 114.7,323.2 119.6,325.5 
	125.5,344.7 125.5,350.4 130.7,350.4 168.8,401 169.7,408.6 174.8,399.4 196.7,389.8 214.8,388.4 227.8,380 243.1,377.7 259,380.7 
	252.2,374.1 233.4,376.6 241.6,355 252.7,354 252.6,350.5 235.9,354.9 225.2,352 222,345.3 224.5,327.6 219,325.3 220.7,320.3 
	230.2,313.8 241.7,323.8 240.6,333.5 245,325.9 251.4,324.9 231.8,310 231.2,304.7 252,289.2 315.7,262.9 368.1,264.3 373.7,271.2 
	365.9,283.6 373.3,295.5 367.4,306.4 375.6,320 370.9,331 378.5,340.6 372.8,355.5 377.6,363.6 369.6,373.6 374.2,388.6 
	365.4,394.6 365.3,406.1 359.1,410 358.8,422.7 348.5,426.7 347.9,437 339.1,437.8 302.7,407.6 304.3,418.8 297.2,450.9 
	269.1,515.3 249.3,526.4 200.5,518.5 175.2,467 177.6,461 172.5,454.6 173,450.6 215.7,441 228.8,432.1 239.1,433.3 235.5,469.9 "/>
<polygon class="st3" points="276.2,285 314.8,326.9 312,335.9 302.7,331.3 302.8,336 295.7,342.1 301.8,370 293.6,396.2 
	341.4,433.4 343.5,424.4 322.5,401.2 348.4,422.1 355,420.5 354.6,408.9 322,385 356.2,405.1 361.7,401.6 358.7,393.2 324.9,374.9 
	364.3,389.8 368.7,386.3 363,375.2 327.5,362.5 366.5,369.8 372.4,363.6 367.4,357.2 325.9,350.7 348.7,348.7 370.2,352.9 
	374.3,342.4 367.3,332.9 345.1,329.8 325.4,329.9 343.2,325.6 368.3,328.4 370.5,320 363.4,311.1 336,308 316.1,310.3 334.7,303.8 
	364.1,304.8 367,294.2 360.8,287.7 329.3,285.8 302.8,290.3 327.6,279.9 361.7,280.3 367.7,273.4 364.7,269.1 323.2,267.8 "/>
<polygon class="st3" points="269,287.1 253.4,292.2 285.4,316.1 278.9,326.9 279.7,335.1 286.4,342.8 279,372 290.6,397 
	298.8,370.8 293.5,341.3 300,335.1 299.9,325.8 310.2,331.6 311.3,327.1 "/>
<path class="st2" d="M-44.4,84.5c0,0.6,3.8,14.3,3.8,14.3h-7.5L-44.4,84.5z M88,82.4c0.6,0.6,5.6,0.6,5.6,8.5C93,94.1,88,96.7,88,97
	V82.4z M201,84.8l3.8,14.3h-8.2L201,84.8z M13.2,154.5c2.3,0,8.7,4.4,8.7,9.4c0.6,8.8-7.5,12.3-8.7,12.3V154.5z M129.1,155.6
	c1.8,0,9.6,4.4,9.9,11.4c0,4.7-9.3,10.9-9.9,12.3V155.6z M160,69.9c0.6,0,5.6,5.6,5.6,5.6s-8.8,10.6-8.2,17.6
	c0,6.7,9.4,18.4,10.9,19.3c-0.9,1.8-2.6,6.8-5.9,10.6c0-0.6-17.9-17.6-14.9-33.6C147.7,84.8,153.5,75.5,160,69.9 M-50.8,73.3
	c-0.6,3.8-13.2,43.3-13.2,43.3s8.2,3.8,9.4,4.4c-0.6-0.6,2.1-9.1,2.1-10h15.1c0,0.9,1.8,8.2,1.8,9.4c0,0.6,10-3.8,10-4.4
	c-8.2-24.3-11.7-42.7-11.7-42.7H-50.8 M-7.5,73.3c-1.4,7.9-5,27.2-9.7,43.3c0.9,0,9.7,3.2,9.7,3.8c0,0,4.4-14.4,4.4-14.9l3.8,14.9
	h6.6l4.7-14.9l3.8,15.5l10-5C24.7,114.9,15,74.5,15,73.3H8.9c0,2.3-3.7,20.5-3.7,21.1c0-0.6-5-19.4-5.9-21.1H-7.5 M39.7,73.3
	c-0.6,0,0,11.1,0,22.2c0,12.3-0.6,24.9-0.6,24.9h22.8c1.2-5,2.3-11.1,1.8-11.1c-9.6,1.8-6.9,2.6-15.1,1.8v-7.9L61,99.9
	c0,0,0.9-9,0.9-8.7c0-0.3-10.2,2.6-13.4,2.6v-10h13.7l-4-10.6H39.7 M77.2,73c0,0,1.2,14.4,1.2,23.7c0,9.4-1.2,24.1-1.2,24.1
	c6.5,0,10.9-0.6,11.4-0.6L88,107.5c0-0.3,2.6-1.8,2.6-1.8c0.6,0.9,4.4,14.4,4.4,14.4c1.2,0,6.7-2.9,8.8-3.8
	c-0.6-1.2-6.5-16.1-5.6-16.1c0-0.6,5-8.7,5-12.8c0-3.2-4.4-11.4-9.7-14.4H77.2z M119.7,73.3c0.3,27.2,0,38.6,0,47.1h11.6
	c0-2.3-1.8-31.6-0.6-47.1H119.7z M194.9,73.6c-1.2,3.2-14.6,43.6-14.6,43.6s9,3.5,9.6,3.5c0,0,2.3-9.1,3.2-9.1h14.4
	c0,0.3,1.2,7.9,1.2,9.1c0.9,0,10.8-3.5,11.4-4.4c-8.8-24-12.6-42.7-12.6-42.7H194.9 M265,70.9c0,0-10.9,3.8-11.4,4.4
	c0,0.6,1.5,18.8,1.5,19.4c0,0-12.3-17.6-13.5-19.9c-4.3,0-4.9,0.6-8.1,0c0,0,0.9,43.3,0,43.3c2.1,0.9,10.2,2.6,11.3,3.8V98.7
	l15.8,23.2c0,0,3.8-2.9,5-3.8C265.5,118,263.8,77,265,70.9 M-51.9,131.6c0,2.6-14.7,18.1-8.8,38.6c2.3,6.2,20.7,21.1,2.9,49.8
	c2,1.2,14,7.3,17.8,8.8c0.6-1.5,9.4-16.7,10.9-22c3.5-27.8-27.2-42.1-5.3-67C-35,139.8-48.7,132.2-51.9,131.6 M-4.4,137.5
	c0,0,0.3,31.3,0.3,51.2c0,14.3-0.3,36.6-0.3,36.6h21.9l-2-26c0-2.1,24-14.4,26.1-34.9c-2.1-9.4-17.6-26-18.5-26.9H-4.4z M64.6,137.5
	c1.5,49.2-0.6,72.3-0.6,87.8h22.8c0-4.4-3.2-60.3-2.1-87.8H64.6z M139.6,138.4c-13.1,0-26.3-0.9-26.9-0.9c0,0,1.7,26.2,1.8,43
	c0,17.5-1.8,44.8-1.8,44.8h20.1l-2.3-28.1c0.3,0,4.9-3.5,4.9-3.5c0.3,0.6,10,30.4,10,31c1.5,0,10.6-6.7,13.8-8.2
	c-0.3-1.8-12.3-31.6-11.7-32.2c0-1.2,8.5-13.8,8.5-20.5C156,155.6,147.8,144,139.6,138.4 M178.2,137.5c1.8,49.2,0,72.3,0,87.8h22.5
	c-0.6-4.4-2.9-60.3-1.8-87.8H178.2z M221.4,137.5c0,0.9-4.1,15.8-4.1,18.1h15.6l-2.4,69.7h21.3l-3.2-70.3H262
	c1.8-3.8,3.8-13.4,3.8-17.5H221.4"/>
<path class="st0" d="M158.6,75.8l1,1.1c-0.1,0.1-7,6.5-7.1,16.1c-0.1,6.8,3.2,13.5,9.7,20l-1.1,1.1c-6.9-6.8-10.3-13.9-10.2-21.1
	C151.2,82.7,158.3,76.1,158.6,75.8"/>
<path class="st0" d="M-47.5,78.1h6.6l0.2,0.6l9.7,34.2l-1.5,0.4l-2.5-7.7l-19.7,0.3l-2.3,7.4l-1.5-0.4l2.2-8.5l0.5,0L-47.5,78.1z
	 M-42,79.7h-4.3l-7.8,24.7l19.1-0.3L-42,79.7z"/>
<polygon class="st0" points="-4,82.2 4,108.5 12.2,83.9 20.2,113.2 18.7,113.6 12,89.2 3.9,113.6 -3.9,87.9 -10.5,113.3 -12,112.9 
	"/>
<polygon class="st0" points="43.9,78.1 56.1,78.1 56.1,79.7 45.4,79.7 45.3,97.8 56.5,95.3 56.8,96.8 45.4,99.4 45.1,115.3 
	58.1,115.3 58.1,116.8 43.6,116.8 43.6,116 "/>
<path class="st0" d="M82.9,76.7h6.9c3.2,0,9.9,7.4,9.9,11.9c-0.6,3.7-2.8,6.5-5.2,9.3l-0.6,0.7l5.2,16.3l-1.4,0.5l-5-15.8
	c-0.6,0.3-1.4,0.7-2.7,1.3c-1.7,0.8-4.6,2.1-5.2,2.6c-0.1,0.6-0.2,2-0.3,3.8v8.5l-1.5,0c0-0.7-0.1-5,0-8.5V76.7z M84.4,101.9
	c0.9-0.5,2.4-1.3,4.8-2.4c1.3-0.6,3-1.4,3.3-1.6l0.8-0.9c2.3-2.7,4.4-5.3,4.9-8.5c0-4.1-6.3-10.3-8.3-10.3h-5.4V101.9z"/>
<rect x="123.8" y="77.1" class="st0" width="1.5" height="39.5"/>
<path class="st0" d="M198.1,78.4h7l6.4,25.4h0.3l1.9,8.8l-1.5,0.4l-1.9-7.6l-19.7,0.3l-2.8,7.4l-1.4-0.5L198.1,78.4z M203.9,79.9
	h-4.7l-8.2,24.2l19-0.3L203.9,79.9z"/>
<polygon class="st0" points="259.2,80.3 260.7,80.3 260.7,111.4 240.6,86.2 240.6,114.5 239.1,114.5 239.1,81.9 259.2,107 "/>
<path class="st0" d="M-46.4,141l2.5,1.8c-0.1,0.1-7.8,11.2-6.5,18.4c1.1,6.6,3.8,11.7,6.4,16.6c2.8,5.3,5.5,10.3,6.1,16.6
	c0.6,9.6-1.6,15.6-6.2,24l-2.6-1.4c4.4-8,6.4-13.4,5.9-22.3c-0.6-5.7-3.1-10.5-5.7-15.5c-2.7-5.1-5.5-10.4-6.7-17.5
	C-55,153.2-46.8,141.5-46.4,141"/>
<path class="st0" d="M4,144.8h9.1c4,0,8.6,2.4,12.4,6.5c4.1,4.4,6.3,9.7,6,14.4c-0.8,11.1-16.7,21.4-22.7,25.3
	c-0.6,0.4-1.3,0.8-1.6,1.1c0,0.3-0.1,0.9-0.2,2v22.2H4.9l-0.5-0.5c-0.1-0.1-0.3-0.5-0.3-1h0v-0.2c-0.7-4.5-0.1-19.5,0-20.5V144.8z
	 M7.1,188.6c0.1,0,0.1-0.1,0.2-0.1c5.7-3.7,20.7-13.4,21.3-23c0.3-3.8-1.7-8.4-5.2-12.1c-3.2-3.4-7.1-5.5-10.2-5.5H7.1V188.6z"/>
<rect x="73.3" y="145.2" class="st0" width="3" height="69.6"/>
<path class="st0" d="M121.1,144.3h1.5c10.1,0,22.4,5.3,25.1,15.1c1.4,5.1,0.4,12.5-9.1,21.5l12.9,31.7l-2.8,1.1l-12.5-30.7
	c-3.2,2.7-7.2,5.5-12.1,8.5v25.2h-3V144.3z M124.2,187.8c15.6-9.7,22.9-19.5,20.6-27.7c-2.1-7.6-11.8-12.3-20.6-12.8V187.8z"/>
<rect x="187.1" y="145.8" class="st0" width="3" height="69.6"/>
<polygon class="st0" points="227.8,145.7 256.2,145.7 256.2,148.7 241.8,148.7 241.8,215.4 238.8,215.4 238.8,148.7 227.8,148.7 "/>
<path class="st4" d="M-55.3,37.6l9.7,18.7c0.6,1.2,0.9,2.3,1.1,3.3h4.3c-0.6-1.5-0.7-2.4-0.7-5.1V32.7c0-2.7,0.1-3.5,0.7-5.1H-45
	c0.6,1.6,0.7,2.4,0.7,5.1V50L-54,31.4c-0.7-1.4-1-2.3-1.3-3.8h-5.1l1.8,3.6v23.4c0,2.7-0.1,3.6-0.7,5.1h4.8
	c-0.6-1.5-0.7-2.4-0.7-5.1V37.6z M2.4,45.6h-5.2l2.6-8.3L2.4,45.6z M3.6,49.3l1.7,5.3c0.3,1,0.6,2.3,0.6,3.1c0,0.6-0.1,1.2-0.3,1.9
	h5.7c-0.7-1.3-1.1-2.1-1.9-4.6l-9.5-28.7l-9.1,28.3c-0.8,2.4-1.3,3.7-2,5h5.4c-0.2-0.9-0.3-1.3-0.3-1.9c0-0.9,0.2-2.2,0.5-3l1.7-5.3
	H3.6z M48.6,31c2.9,0,4.3,0.4,5.8,1.5l1.3-5H39.6l-1.3,5.3c2.2-1.4,3.6-1.8,6.5-1.8v23.4c0,2.7-0.1,3.6-0.7,5.1h5.3
	c-0.6-1.5-0.8-2.3-0.8-5.1V31z M103.5,59.6h4.6c-0.6-1.5-0.7-2.4-0.7-5.1V32.7c0-2.7,0.1-3.5,0.7-5.1h-5.3c0.6,1.6,0.7,2.4,0.7,5.1
	v15.3c0,3.1-0.4,4.9-1.4,6.3c-0.9,1.4-2.3,2.2-3.7,2.2c-1.6,0-3-1-3.8-2.6c-0.7-1.5-0.9-2.8-0.9-6.5V32.7c0-2.8,0.1-3.6,0.8-5.1
	h-5.3c0.6,1.5,0.7,2.4,0.7,5.1v16.1c0,4.6,0.4,6.6,1.8,8.6c1.3,2,3.2,2.9,5.7,2.9c2.4,0,4.1-0.8,6.2-3.1V59.6z M151.7,42.8V31.1
	c1.4,0,1.8,0,2.7,0.4c1.7,0.6,2.7,2.6,2.7,5.1C157.1,40.2,155,42.6,151.7,42.8 M151.7,45.6l5.4,9c2.2,3.8,3.7,5.4,4.8,5.4
	c0.6,0,1.4-0.3,2.2-1.1c-0.3-0.3-0.4-0.5-0.5-0.7c-1.4-1.9-3.3-5.3-6.7-11.8l-0.8-1.5c3.3-2,5-4.9,5-8.7c0-2.5-0.9-4.9-2.4-6.4
	c-1.5-1.5-3.3-2.1-6.3-2.1h-5.3c0.6,1.5,0.7,2.4,0.7,5.1v21.9c0,2.7-0.1,3.6-0.7,5.1h5.3c-0.6-1.5-0.7-2.4-0.7-5.1V45.6z
	 M209.6,45.6h-5.2l2.6-8.3L209.6,45.6z M210.8,49.3l1.7,5.3c0.4,1,0.6,2.3,0.6,3.1c0,0.6-0.1,1.2-0.3,1.9h5.7
	c-0.7-1.3-1.1-2.1-1.9-4.6l-9.5-28.7l-9.1,28.3c-0.8,2.4-1.3,3.7-2,5h5.4c-0.3-0.9-0.3-1.3-0.3-1.9c0-0.9,0.2-2.2,0.5-3l1.7-5.3
	H210.8z M263,59.6l1.8-5.7c-2.1,1.7-3.7,2.2-6.4,2.2h-2.5V32.7c0-2.7,0.1-3.6,0.7-5.1h-5.3c0.6,1.5,0.7,2.4,0.7,5.1v21.9
	c0,2.7-0.1,3.6-0.7,5.1H263z"/>
<line class="st5" x1="250.7" y1="500.4" x2="204" y2="500.4"/>
</svg>
